<svg width="20" height="20" viewBox="0 0 20 20" fill="none" xmlns="http://www.w3.org/2000/svg">
<path d="M17.3547 8.26954L11.1047 2.01954C10.8117 1.72661 10.4143 1.56206 10 1.56206C9.58569 1.56206 9.18833 1.72661 8.89532 2.01954L2.64532 8.26954C2.49964 8.41433 2.38415 8.5866 2.30557 8.77636C2.22698 8.96613 2.18685 9.16961 2.18751 9.37501V16.875C2.18751 17.1236 2.28628 17.3621 2.4621 17.5379C2.63791 17.7137 2.87637 17.8125 3.12501 17.8125H8.12501C8.37365 17.8125 8.6121 17.7137 8.78792 17.5379C8.96374 17.3621 9.06251 17.1236 9.06251 16.875V12.8125H10.9375V16.875C10.9375 17.1236 11.0363 17.3621 11.2121 17.5379C11.3879 17.7137 11.6264 17.8125 11.875 17.8125H16.875C17.1236 17.8125 17.3621 17.7137 17.5379 17.5379C17.7137 17.3621 17.8125 17.1236 17.8125 16.875V9.37501C17.8132 9.16961 17.773 8.96613 17.6945 8.77636C17.6159 8.5866 17.5004 8.41433 17.3547 8.26954ZM15.9375 15.9375H12.8125V11.875C12.8125 11.6264 12.7137 11.3879 12.5379 11.2121C12.3621 11.0363 12.1236 10.9375 11.875 10.9375H8.12501C7.87637 10.9375 7.63791 11.0363 7.4621 11.2121C7.28628 11.3879 7.18751 11.6264 7.18751 11.875V15.9375H4.06251V9.50391L10 3.56641L15.9375 9.50391V15.9375Z" fill="black"/>
</svg>
