<svg width="76" height="76" viewBox="0 0 76 76" fill="none" xmlns="http://www.w3.org/2000/svg">
<path d="M65.9478 31.4242L42.1978 7.67422C41.0844 6.56111 39.5744 5.9358 38 5.9358C36.4256 5.9358 34.9157 6.56111 33.8022 7.67422L10.0522 31.4242C9.49863 31.9744 9.05978 32.6291 8.76115 33.3502C8.46251 34.0713 8.31003 34.8445 8.31253 35.625V64.125C8.31253 65.0698 8.68786 65.976 9.35596 66.6441C10.0241 67.3122 10.9302 67.6875 11.875 67.6875H30.875C31.8199 67.6875 32.726 67.3122 33.3941 66.6441C34.0622 65.976 34.4375 65.0698 34.4375 64.125V48.6875H41.5625V64.125C41.5625 65.0698 41.9379 65.976 42.606 66.6441C43.2741 67.3122 44.1802 67.6875 45.125 67.6875H64.125C65.0699 67.6875 65.976 67.3122 66.6441 66.6441C67.3122 65.976 67.6875 65.0698 67.6875 64.125V35.625C67.69 34.8445 67.5375 34.0713 67.2389 33.3502C66.9403 32.6291 66.5014 31.9744 65.9478 31.4242ZM60.5625 60.5625H48.6875V45.125C48.6875 44.1802 48.3122 43.274 47.6441 42.6059C46.976 41.9378 46.0699 41.5625 45.125 41.5625H30.875C29.9302 41.5625 29.0241 41.9378 28.356 42.6059C27.6879 43.274 27.3125 44.1802 27.3125 45.125V60.5625H15.4375V36.1148L38 13.5523L60.5625 36.1148V60.5625Z" fill="#2B63DC"/>
</svg>
