<svg width="60" height="60" viewBox="0 0 60 60" fill="none" xmlns="http://www.w3.org/2000/svg">
<path d="M30 52.5C34.4501 52.5 38.8002 51.1804 42.5003 48.7081C46.2004 46.2357 49.0843 42.7217 50.7873 38.6104C52.4903 34.499 52.9358 29.975 52.0677 25.6105C51.1995 21.2459 49.0566 17.2368 45.9099 14.0901C42.7632 10.9434 38.7541 8.8005 34.3895 7.93233C30.025 7.06416 25.501 7.50974 21.3896 9.21271C17.2783 10.9157 13.7643 13.7996 11.2919 17.4997C8.8196 21.1998 7.5 25.5499 7.5 30C7.5 33.72 8.4 37.2275 10 40.3175L7.5 52.5L19.6825 50C22.7725 51.6 26.2825 52.5 30 52.5Z" stroke="black" stroke-width="2.5" stroke-linecap="round" stroke-linejoin="round"/>
</svg>
