<svg width="83" height="68" viewBox="0 0 83 68" fill="none" xmlns="http://www.w3.org/2000/svg">
<rect x="0.5" y="0.5" width="82" height="67" rx="4.5" stroke="#8A38F5" stroke-dasharray="10 5"/>
<path d="M42 52.5C46.4501 52.5 50.8002 51.1804 54.5003 48.7081C58.2004 46.2357 61.0843 42.7217 62.7873 38.6104C64.4903 34.499 64.9358 29.975 64.0677 25.6105C63.1995 21.2459 61.0566 17.2368 57.9099 14.0901C54.7632 10.9434 50.7541 8.8005 46.3895 7.93233C42.025 7.06416 37.501 7.50974 33.3896 9.21271C29.2783 10.9157 25.7643 13.7996 23.2919 17.4997C20.8196 21.1998 19.5 25.5499 19.5 30C19.5 33.72 20.4 37.2275 22 40.3175L19.5 52.5L31.6825 50C34.7725 51.6 38.2825 52.5 42 52.5Z" stroke="black" stroke-width="2.5" stroke-linecap="round" stroke-linejoin="round"/>
</svg>
