<svg width="70" height="70" viewBox="0 0 70 70" fill="none" xmlns="http://www.w3.org/2000/svg">
<path d="M64.558 20.7234C64.1969 19.36 63.6471 18.0537 62.9246 16.8425C62.2315 15.5807 61.346 14.4347 60.2999 13.4458C58.7844 11.9635 56.9966 10.7882 55.035 9.98466C51.0846 8.40177 46.6697 8.4386 42.7463 10.0872C40.9042 10.8851 39.215 11.9974 37.7541 13.3743L37.5399 13.6357L34.7509 16.4717L31.9149 13.6827L31.6964 13.4249C30.2127 12.0725 28.5051 10.9886 26.65 10.2215C22.6996 8.63861 18.2848 8.67545 14.3614 10.324C12.4134 11.1602 10.6455 12.3652 9.15496 13.8726C7.11789 15.888 5.6852 18.4331 5.01881 21.2202C4.6663 22.6361 4.50383 24.0927 4.53568 25.5515C4.54712 26.9232 4.73161 28.289 5.08885 29.6145C5.46279 30.9531 5.99658 32.2417 6.6787 33.4525C7.41483 34.697 8.31189 35.839 9.34668 36.8488L35.1325 62.2079L60.4916 36.4221C61.5087 35.4053 62.3774 34.2427 63.0592 32.9821C64.4402 30.5676 65.1495 27.8273 65.1134 25.046C65.1209 23.5869 64.9341 22.1333 64.558 20.7234ZM60.2899 27.8125C59.7862 29.7931 58.7718 31.607 57.348 33.073L34.9922 55.7614L12.2609 33.4492C11.5233 32.7126 10.8772 31.8899 10.3364 30.9987C9.83056 30.1145 9.43056 29.1737 9.14466 28.196C8.91638 27.2175 8.792 26.2178 8.77359 25.2132C8.77213 24.1798 8.87957 23.1491 9.09411 22.1382C9.35549 21.153 9.74013 20.2048 10.2389 19.3159C10.7535 18.4029 11.3812 17.5755 12.1222 16.8336C13.224 15.7269 14.5227 14.8355 15.9516 14.2053C18.8307 13.0256 22.0533 12.9987 24.9517 14.1302C26.3845 14.7111 27.6812 15.5701 28.7807 16.6514L34.7149 22.5302L40.5501 16.5532C41.6292 15.45 42.9161 14.5715 44.3366 13.9685C47.2157 12.7887 50.4383 12.7618 53.3367 13.8934C54.7741 14.5002 56.0882 15.372 57.2093 16.4574C57.9682 17.1651 58.6069 17.9906 59.0905 18.9083C60.1056 20.6681 60.6443 22.6622 60.6533 24.6938C60.7209 25.7388 60.6423 26.7881 60.4197 27.8114L60.2899 27.8125Z" fill="black"/>
</svg>
