<svg width="70" height="71" viewBox="0 0 70 71" fill="none" xmlns="http://www.w3.org/2000/svg">
<path d="M64.558 21.5327C64.1969 20.1693 63.6471 18.8631 62.9246 17.6518C62.2315 16.39 61.346 15.2441 60.2999 14.2552C58.7844 12.7728 56.9966 11.5976 55.035 10.794C51.0846 9.2111 46.6697 9.24794 42.7463 10.8965C40.9042 11.6944 39.215 12.8067 37.7541 14.1836L37.5399 14.4451L34.7509 17.2811L31.9149 14.492L31.6964 14.2342C30.2127 12.8818 28.5051 11.7979 26.65 11.0308C22.6996 9.44795 18.2848 9.48478 14.3614 11.1334C12.4134 11.9696 10.6455 13.1745 9.15496 14.6819C7.11789 16.6974 5.6852 19.2425 5.01881 22.0295C4.6663 23.4455 4.50383 24.902 4.53568 26.3608C4.54712 27.7325 4.73161 29.0984 5.08885 30.4239C5.46279 31.7624 5.99658 33.051 6.6787 34.2619C7.41483 35.5064 8.31189 36.6483 9.34668 37.6582L35.1325 63.0172L60.4916 37.2314C61.5087 36.2147 62.3774 35.052 63.0592 33.7914C64.4402 31.3769 65.1495 28.6367 65.1134 25.8554C65.1209 24.3962 64.9341 22.9426 64.558 21.5327ZM60.2899 28.6218C59.7862 30.6025 58.7718 32.4163 57.348 33.8824L34.9922 56.5708L12.2609 34.2586C11.5233 33.522 10.8772 32.6992 10.3364 31.8081C9.83056 30.9238 9.43056 29.9831 9.14466 29.0053C8.91638 28.0269 8.792 27.0271 8.77359 26.0226C8.77213 24.9891 8.87957 23.9584 9.09411 22.9475C9.35549 21.9624 9.74013 21.0141 10.2389 20.1252C10.7535 19.2122 11.3812 18.3848 12.1222 17.643C13.224 16.5362 14.5227 15.6449 15.9516 15.0147C18.8307 13.8349 22.0533 13.808 24.9517 14.9396C26.3845 15.5204 27.6812 16.3794 28.7807 17.4607L34.7149 23.3396L40.5501 17.3625C41.6292 16.2593 42.9161 15.3809 44.3366 14.7778C47.2157 13.5981 50.4383 13.5712 53.3367 14.7027C54.7741 15.3095 56.0882 16.1813 57.2093 17.2668C57.9682 17.9744 58.6069 18.7999 59.0905 19.7176C60.1056 21.4774 60.6443 23.4716 60.6533 25.5031C60.7209 26.5481 60.6423 27.5975 60.4197 28.6207L60.2899 28.6218Z" fill="#2B63DC"/>
</svg>
