<svg width="21" height="21" viewBox="0 0 21 21" fill="none" xmlns="http://www.w3.org/2000/svg">
<path d="M18.6491 5.98647C18.5448 5.59262 18.3859 5.21527 18.1772 4.86536C17.977 4.50087 17.7212 4.16982 17.419 3.88416C16.9812 3.45595 16.4648 3.11644 15.8981 2.88431C14.7569 2.42705 13.4816 2.43769 12.3482 2.91393C11.8161 3.14443 11.3281 3.46574 10.9061 3.8635L10.8442 3.93902L10.0385 4.75827L9.21929 3.95257L9.15617 3.8781C8.72758 3.48744 8.2343 3.17431 7.69839 2.95273C6.55723 2.49547 5.28189 2.50611 4.14852 2.98235C3.58579 3.2239 3.07509 3.57198 2.64452 4.00743C2.05606 4.58965 1.64219 5.32487 1.44969 6.12998C1.34785 6.53901 1.30092 6.95977 1.31012 7.38119C1.31343 7.77742 1.36672 8.17199 1.46992 8.55489C1.57794 8.94156 1.73214 9.31381 1.92919 9.6636C2.14184 10.0231 2.40098 10.353 2.6999 10.6447L10.1488 17.9703L17.4744 10.5214C17.7682 10.2277 18.0191 9.89186 18.2161 9.5277C18.615 8.83021 18.8199 8.03862 18.8095 7.23517C18.8117 6.81366 18.7577 6.39374 18.6491 5.98647ZM17.4161 8.03432C17.2706 8.60648 16.9776 9.13047 16.5663 9.55397L10.1082 16.1081L3.54173 9.66264C3.32868 9.44986 3.14202 9.21218 2.98581 8.95476C2.83968 8.69932 2.72413 8.42756 2.64154 8.1451C2.5756 7.86246 2.53967 7.57365 2.53435 7.28347C2.53393 6.98494 2.56496 6.68719 2.62694 6.39516C2.70244 6.11057 2.81356 5.83665 2.95765 5.57988C3.10629 5.31613 3.28763 5.0771 3.50168 4.86281C3.81996 4.5431 4.19512 4.2856 4.60789 4.10356C5.43959 3.76276 6.37052 3.75499 7.2078 4.08186C7.62171 4.24966 7.99629 4.4978 8.31391 4.81016L10.0281 6.50841L11.7138 4.78179C12.0255 4.46311 12.3973 4.20934 12.8076 4.03514C13.6393 3.69434 14.5702 3.68657 15.4075 4.01344C15.8227 4.18874 16.2024 4.44058 16.5262 4.75414C16.7454 4.95856 16.9299 5.19703 17.0697 5.46213C17.3629 5.9705 17.5185 6.54654 17.5211 7.13342C17.5406 7.43529 17.5179 7.73842 17.4536 8.03401L17.4161 8.03432Z" fill="#2B63DC"/>
</svg>
