<svg width="85" height="85" viewBox="0 0 85 85" fill="none" xmlns="http://www.w3.org/2000/svg">
<path d="M65.875 10.625H19.125C18.0088 10.625 16.9035 10.8449 15.8722 11.272C14.8409 11.6992 13.9039 12.3253 13.1146 13.1146C12.3253 13.9039 11.6992 14.8409 11.272 15.8722C10.8449 16.9035 10.625 18.0088 10.625 19.125V65.875C10.625 68.1293 11.5205 70.2914 13.1146 71.8854C14.7087 73.4795 16.8707 74.375 19.125 74.375H65.875C68.1293 74.375 70.2914 73.4795 71.8854 71.8854C73.4795 70.2914 74.375 68.1293 74.375 65.875V19.125C74.375 16.8707 73.4795 14.7087 71.8854 13.1146C70.2914 11.5205 68.1293 10.625 65.875 10.625Z" fill="black" fill-opacity="0.16"/>
<path d="M10.8389 53.0537H74.161M10.8389 31.9463H74.161M31.9462 74.1611V10.8389M53.0536 74.1611V10.8389M19.2818 10.8389H65.7181C67.9573 10.8389 70.1048 11.7285 71.6881 13.3118C73.2715 14.8952 74.161 17.0427 74.161 19.2819V65.7181C74.161 67.9573 73.2715 70.1048 71.6881 71.6882C70.1048 73.2716 67.9573 74.1611 65.7181 74.1611H19.2818C17.0426 74.1611 14.8951 73.2716 13.3118 71.6882C11.7284 70.1048 10.8389 67.9573 10.8389 65.7181V19.2819C10.8389 18.1731 11.0573 17.0752 11.4815 16.0509C11.9058 15.0266 12.5278 14.0958 13.3118 13.3118C14.8951 11.7285 17.0426 10.8389 19.2818 10.8389Z" stroke="black" stroke-width="1.5" stroke-miterlimit="10" stroke-linecap="round" stroke-linejoin="round"/>
</svg>
